<mxfile host="app.diagrams.net" agent="Mozilla/5.0 (Windows NT 10.0; Win64; x64) AppleWebKit/537.36 (KHTML, like Gecko) Chrome/138.0.0.0 YaBrowser/25.8.0.0 Safari/537.36" version="28.2.7">
  <diagram name="Страница — 1" id="w6t9OByJL9f1ZJVstOhO">
    <mxGraphModel dx="1378" dy="848" grid="0" gridSize="10" guides="1" tooltips="1" connect="1" arrows="1" fold="1" page="1" pageScale="1" pageWidth="827" pageHeight="1169" math="0" shadow="0">
      <root>
        <mxCell id="0" />
        <mxCell id="1" parent="0" />
        <mxCell id="ckQFS6H3vLSj3azP7Eja-3" style="edgeStyle=none;curved=1;rounded=0;orthogonalLoop=1;jettySize=auto;html=1;exitX=1;exitY=1;exitDx=0;exitDy=0;exitPerimeter=0;entryX=0;entryY=0.5;entryDx=0;entryDy=0;fontSize=12;startSize=8;endSize=8;strokeColor=default;endArrow=none;endFill=0;" edge="1" parent="1" source="ckQFS6H3vLSj3azP7Eja-1" target="ckQFS6H3vLSj3azP7Eja-2">
          <mxGeometry relative="1" as="geometry" />
        </mxCell>
        <mxCell id="ckQFS6H3vLSj3azP7Eja-1" value=":Customer" style="shape=umlActor;verticalLabelPosition=bottom;verticalAlign=top;html=1;" vertex="1" parent="1">
          <mxGeometry x="50" y="160" width="30" height="60" as="geometry" />
        </mxCell>
        <mxCell id="ckQFS6H3vLSj3azP7Eja-6" style="edgeStyle=orthogonalEdgeStyle;rounded=0;orthogonalLoop=1;jettySize=auto;html=1;exitX=0.75;exitY=0;exitDx=0;exitDy=0;fontSize=12;startSize=8;endSize=8;entryX=1;entryY=0.5;entryDx=0;entryDy=0;endArrow=none;endFill=0;" edge="1" parent="1" source="ckQFS6H3vLSj3azP7Eja-2" target="ckQFS6H3vLSj3azP7Eja-2">
          <mxGeometry relative="1" as="geometry">
            <mxPoint x="560" y="120" as="targetPoint" />
          </mxGeometry>
        </mxCell>
        <mxCell id="ckQFS6H3vLSj3azP7Eja-7" value="1.1:GetTariff()" style="edgeLabel;html=1;align=center;verticalAlign=middle;resizable=0;points=[];fontSize=12;" vertex="1" connectable="0" parent="ckQFS6H3vLSj3azP7Eja-6">
          <mxGeometry x="0.0065" relative="1" as="geometry">
            <mxPoint x="-20" y="-20" as="offset" />
          </mxGeometry>
        </mxCell>
        <mxCell id="ckQFS6H3vLSj3azP7Eja-10" style="edgeStyle=none;curved=1;rounded=0;orthogonalLoop=1;jettySize=auto;html=1;exitX=1;exitY=1;exitDx=0;exitDy=0;entryX=0;entryY=0;entryDx=0;entryDy=0;fontSize=12;startSize=8;endSize=8;endArrow=none;endFill=0;" edge="1" parent="1" source="ckQFS6H3vLSj3azP7Eja-2" target="ckQFS6H3vLSj3azP7Eja-9">
          <mxGeometry relative="1" as="geometry" />
        </mxCell>
        <mxCell id="ckQFS6H3vLSj3azP7Eja-13" style="edgeStyle=none;curved=1;rounded=0;orthogonalLoop=1;jettySize=auto;html=1;exitX=0.5;exitY=1;exitDx=0;exitDy=0;fontSize=12;startSize=8;endSize=8;endArrow=none;endFill=0;" edge="1" parent="1" source="ckQFS6H3vLSj3azP7Eja-2" target="ckQFS6H3vLSj3azP7Eja-12">
          <mxGeometry relative="1" as="geometry" />
        </mxCell>
        <mxCell id="ckQFS6H3vLSj3azP7Eja-20" style="edgeStyle=orthogonalEdgeStyle;rounded=0;orthogonalLoop=1;jettySize=auto;html=1;exitX=0.4;exitY=1;exitDx=0;exitDy=0;fontSize=12;startSize=8;endSize=8;endArrow=none;endFill=0;exitPerimeter=0;entryX=0;entryY=0.75;entryDx=0;entryDy=0;" edge="1" parent="1" source="ckQFS6H3vLSj3azP7Eja-2" target="ckQFS6H3vLSj3azP7Eja-2">
          <mxGeometry relative="1" as="geometry">
            <mxPoint x="330" y="280" as="targetPoint" />
            <Array as="points">
              <mxPoint x="434" y="260" />
              <mxPoint x="350" y="260" />
              <mxPoint x="350" y="230" />
            </Array>
          </mxGeometry>
        </mxCell>
        <mxCell id="ckQFS6H3vLSj3azP7Eja-2" value=":GettingOrder" style="html=1;whiteSpace=wrap;" vertex="1" parent="1">
          <mxGeometry x="370" y="200" width="160" height="40" as="geometry" />
        </mxCell>
        <mxCell id="ckQFS6H3vLSj3azP7Eja-4" value="1:GetOrder(User)" style="html=1;verticalAlign=bottom;endArrow=block;curved=0;rounded=0;fontSize=12;startSize=8;endSize=8;" edge="1" parent="1">
          <mxGeometry width="80" relative="1" as="geometry">
            <mxPoint x="120" y="200" as="sourcePoint" />
            <mxPoint x="340" y="200" as="targetPoint" />
          </mxGeometry>
        </mxCell>
        <mxCell id="ckQFS6H3vLSj3azP7Eja-8" value="" style="html=1;verticalAlign=bottom;endArrow=block;curved=0;rounded=0;fontSize=12;startSize=8;endSize=8;" edge="1" parent="1">
          <mxGeometry width="80" relative="1" as="geometry">
            <mxPoint x="500" y="170" as="sourcePoint" />
            <mxPoint x="540" y="170" as="targetPoint" />
            <Array as="points">
              <mxPoint x="500" y="170" />
            </Array>
          </mxGeometry>
        </mxCell>
        <mxCell id="ckQFS6H3vLSj3azP7Eja-9" value=":Taxidriver" style="html=1;whiteSpace=wrap;" vertex="1" parent="1">
          <mxGeometry x="670" y="320" width="110" height="40" as="geometry" />
        </mxCell>
        <mxCell id="ckQFS6H3vLSj3azP7Eja-11" value="1.1.1: car = Getdriver(User)" style="html=1;verticalAlign=bottom;endArrow=block;curved=0;rounded=0;fontSize=12;startSize=8;endSize=8;" edge="1" parent="1">
          <mxGeometry x="0.5855" y="30" width="80" relative="1" as="geometry">
            <mxPoint x="550" y="240" as="sourcePoint" />
            <mxPoint x="670" y="310" as="targetPoint" />
            <mxPoint as="offset" />
          </mxGeometry>
        </mxCell>
        <mxCell id="ckQFS6H3vLSj3azP7Eja-22" value="*[available drivers!=null]" style="edgeLabel;html=1;align=center;verticalAlign=middle;resizable=0;points=[];fontSize=12;" vertex="1" connectable="0" parent="ckQFS6H3vLSj3azP7Eja-11">
          <mxGeometry x="0.4321" relative="1" as="geometry">
            <mxPoint x="24" y="-50" as="offset" />
          </mxGeometry>
        </mxCell>
        <mxCell id="ckQFS6H3vLSj3azP7Eja-12" value=":PriceColculate" style="html=1;whiteSpace=wrap;" vertex="1" parent="1">
          <mxGeometry x="395" y="460" width="110" height="40" as="geometry" />
        </mxCell>
        <mxCell id="ckQFS6H3vLSj3azP7Eja-14" value="1.1.2: price = getPrice()" style="html=1;verticalAlign=bottom;endArrow=block;curved=0;rounded=0;fontSize=12;startSize=8;endSize=8;" edge="1" parent="1">
          <mxGeometry x="-0.0769" y="60" width="80" relative="1" as="geometry">
            <mxPoint x="470" y="300" as="sourcePoint" />
            <mxPoint x="470" y="430" as="targetPoint" />
            <mxPoint as="offset" />
          </mxGeometry>
        </mxCell>
        <mxCell id="ckQFS6H3vLSj3azP7Eja-16" value="[car!=null]" style="edgeLabel;html=1;align=center;verticalAlign=middle;resizable=0;points=[];fontSize=12;" vertex="1" connectable="0" parent="ckQFS6H3vLSj3azP7Eja-14">
          <mxGeometry x="0.3667" y="1" relative="1" as="geometry">
            <mxPoint x="49" y="-59" as="offset" />
          </mxGeometry>
        </mxCell>
        <mxCell id="ckQFS6H3vLSj3azP7Eja-18" value="1.1.3: GetWarnMessage(User)" style="html=1;verticalAlign=bottom;endArrow=block;curved=0;rounded=0;fontSize=12;startSize=8;endSize=8;" edge="1" parent="1">
          <mxGeometry y="40" width="80" relative="1" as="geometry">
            <mxPoint x="340" y="240" as="sourcePoint" />
            <mxPoint x="120" y="240" as="targetPoint" />
            <mxPoint as="offset" />
          </mxGeometry>
        </mxCell>
        <mxCell id="ckQFS6H3vLSj3azP7Eja-19" value="[car==null]" style="edgeLabel;html=1;align=center;verticalAlign=middle;resizable=0;points=[];fontSize=12;" vertex="1" connectable="0" parent="ckQFS6H3vLSj3azP7Eja-18">
          <mxGeometry x="-0.0727" y="2" relative="1" as="geometry">
            <mxPoint x="-8" y="8" as="offset" />
          </mxGeometry>
        </mxCell>
        <mxCell id="ckQFS6H3vLSj3azP7Eja-21" value="1.1.4:rateOrder(car)" style="html=1;verticalAlign=bottom;endArrow=block;curved=0;rounded=0;fontSize=12;startSize=8;endSize=8;" edge="1" parent="1">
          <mxGeometry y="30" width="80" relative="1" as="geometry">
            <mxPoint x="410" y="270" as="sourcePoint" />
            <mxPoint x="370" y="270" as="targetPoint" />
            <mxPoint as="offset" />
          </mxGeometry>
        </mxCell>
      </root>
    </mxGraphModel>
  </diagram>
</mxfile>
